<svg xmlns="http://www.w3.org/2000/svg" viewBox="-0.5 -0.5 24 24" id="Health-Medical-Notes--Streamline-Pixel.svg" height="24" width="24"><desc>Health Medical Notes Streamline Icon: https://streamlinehq.com</desc><title>health-medical-notes</title><g><path d="M19.71171875 21.36125h1.0996875V3.8309375h-1.0996875V2.7384375h-4.3771875V1.6459375h-2.1921874999999997v1.0925h1.0925v1.0925H8.768749999999999V2.7384375h1.0925V1.6459375h-2.1921874999999997v1.0925H3.2882812500000003v1.0925h-1.0996875v17.5303125h1.0996875v1.0925h16.423437500000002Zm-1.0925 -1.0996875H4.3843749999999995V3.8309375h3.2846875000000004v1.0996875h7.6690625V3.8309375h3.2846875000000004Z" fill="#000000" stroke-width="1"></path><path d="M8.76515625 18.069375h7.661875v1.0996875h-7.661875Z" fill="#000000" stroke-width="1"></path><path d="M8.76515625 14.7846875h7.661875v1.0996875h-7.661875Z" fill="#000000" stroke-width="1"></path><path d="M12.04984375 8.2153125h4.3771875v1.0925h-4.3771875Z" fill="#000000" stroke-width="1"></path><path d="M9.85765625 0.54625h3.2846875000000004v1.0996875h-3.2846875000000004Z" fill="#000000" stroke-width="1"></path><path d="M8.76515625 11.5h7.661875v1.0996875h-7.661875Z" fill="#000000" stroke-width="1"></path><path d="M6.572968749999999 18.069375h1.0925v1.0996875h-1.0925Z" fill="#000000" stroke-width="1"></path><path d="M6.572968749999999 14.7846875h1.0925v1.0996875h-1.0925Z" fill="#000000" stroke-width="1"></path><path d="M6.572968749999999 11.5h1.0925v1.0996875h-1.0925Z" fill="#000000" stroke-width="1"></path><path d="m6.572968749999999 10.4075 2.1921874999999997 0 0 -1.0996875 1.0925 0 0 -2.185 -1.0925 0 0 -1.0996875 -2.1921874999999997 0 0 1.0996875 -1.0996875 0 0 2.185 1.0996875 0 0 1.0996875z" fill="#000000" stroke-width="1"></path></g></svg>