<svg xmlns="http://www.w3.org/2000/svg" viewBox="-0.5 -0.5 24 24" id="Content-Files-Pencil-Brush--Streamline-Pixel.svg" height="24" width="24"><desc>Content Files Pencil Brush Streamline Icon: https://streamlinehq.com</desc><title>content-files-pencil-brush</title><g><path d="m21.9075 15.884375 -1.0925 0 0 1.0925 -2.1921874999999997 0 0 2.1921874999999997 -2.1921874999999997 0 0 2.1921874999999997 -1.0925 0 0 1.0925 7.661875 0 0 -1.0925 -1.0925 0 0 -5.476875z" fill="#000000" stroke-width="1"></path><path d="M20.815 3.838125h1.0925v2.185h-1.0925Z" fill="#000000" stroke-width="1"></path><path d="M19.7153125 14.7846875h1.0996875v1.0996875h-1.0996875Z" fill="#000000" stroke-width="1"></path><path d="M19.7153125 6.023125h1.0996875v1.0996875h-1.0996875Z" fill="#000000" stroke-width="1"></path><path d="M19.7153125 2.7384375h1.0996875v1.0996875h-1.0996875Z" fill="#000000" stroke-width="1"></path><path d="M18.6228125 7.1228125h1.0925v1.0925h-1.0925Z" fill="#000000" stroke-width="1"></path><path d="M18.6228125 1.6459375h1.0925v1.0925h-1.0925Z" fill="#000000" stroke-width="1"></path><path d="M17.5303125 8.2153125h1.0925v1.0996875h-1.0925Z" fill="#000000" stroke-width="1"></path><path d="M17.5303125 6.023125h1.0925v1.0996875h-1.0925Z" fill="#000000" stroke-width="1"></path><path d="M16.430625 0.54625h2.1921874999999997v1.0996875h-2.1921874999999997Z" fill="#000000" stroke-width="1"></path><path d="M16.430625 13.692187500000001h3.2846875000000004v1.0925h-3.2846875000000004Z" fill="#000000" stroke-width="1"></path><path d="M16.430625 9.315000000000001h1.0996875v1.0925h-1.0996875Z" fill="#000000" stroke-width="1"></path><path d="M16.430625 4.930625h1.0996875v1.0925h-1.0996875Z" fill="#000000" stroke-width="1"></path><path d="M15.338125 14.7846875h1.0925v1.0996875h-1.0925Z" fill="#000000" stroke-width="1"></path><path d="M15.338125 12.599687500000002h1.0925v1.0925h-1.0925Z" fill="#000000" stroke-width="1"></path><path d="M15.338125 10.4075h1.0925V11.5h-1.0925Z" fill="#000000" stroke-width="1"></path><path d="M15.338125 6.023125h1.0925v1.0996875h-1.0925Z" fill="#000000" stroke-width="1"></path><path d="M15.338125 3.838125h1.0925v1.0925h-1.0925Z" fill="#000000" stroke-width="1"></path><path d="M15.338125 1.6459375h1.0925v1.0925h-1.0925Z" fill="#000000" stroke-width="1"></path><path d="M14.2384375 20.2615625h1.0996875v1.0996875h-1.0996875Z" fill="#000000" stroke-width="1"></path><path d="M14.2384375 15.884375h1.0996875v1.0925h-1.0996875Z" fill="#000000" stroke-width="1"></path><path d="M14.2384375 11.5h1.0996875v1.0996875h-1.0996875Z" fill="#000000" stroke-width="1"></path><path d="M14.2384375 7.1228125h1.0996875v1.0925h-1.0996875Z" fill="#000000" stroke-width="1"></path><path d="M14.2384375 2.7384375h1.0996875v1.0996875h-1.0996875Z" fill="#000000" stroke-width="1"></path><path d="M13.145937499999999 16.976875h1.0925v3.2846875000000004h-1.0925Z" fill="#000000" stroke-width="1"></path><path d="M13.145937499999999 12.599687500000002h1.0925v1.0925h-1.0925Z" fill="#000000" stroke-width="1"></path><path d="M13.145937499999999 8.2153125h1.0925v1.0996875h-1.0925Z" fill="#000000" stroke-width="1"></path><path d="M13.145937499999999 3.838125h1.0925v1.0925h-1.0925Z" fill="#000000" stroke-width="1"></path><path d="M12.0534375 15.884375h1.0925v1.0925h-1.0925Z" fill="#000000" stroke-width="1"></path><path d="M12.0534375 13.692187500000001h1.0925v1.0925h-1.0925Z" fill="#000000" stroke-width="1"></path><path d="M12.0534375 9.315000000000001h1.0925v1.0925h-1.0925Z" fill="#000000" stroke-width="1"></path><path d="M12.0534375 4.930625h1.0925v1.0925h-1.0925Z" fill="#000000" stroke-width="1"></path><path d="M10.95375 14.7846875h1.0996875v1.0996875h-1.0996875Z" fill="#000000" stroke-width="1"></path><path d="M10.95375 10.4075h1.0996875V11.5h-1.0996875Z" fill="#000000" stroke-width="1"></path><path d="M10.95375 6.023125h1.0996875v1.0996875h-1.0996875Z" fill="#000000" stroke-width="1"></path><path d="M9.86125 15.884375h1.0925v1.0925h-1.0925Z" fill="#000000" stroke-width="1"></path><path d="M9.86125 11.5h1.0925v1.0996875h-1.0925Z" fill="#000000" stroke-width="1"></path><path d="M9.86125 7.1228125h1.0925v1.0925h-1.0925Z" fill="#000000" stroke-width="1"></path><path d="M8.768749999999999 16.976875h1.0925v1.0996875H8.768749999999999Z" fill="#000000" stroke-width="1"></path><path d="M8.768749999999999 12.599687500000002h1.0925v1.0925H8.768749999999999Z" fill="#000000" stroke-width="1"></path><path d="M8.768749999999999 8.2153125h1.0925v1.0996875H8.768749999999999Z" fill="#000000" stroke-width="1"></path><path d="M8.768749999999999 6.023125h1.0925v1.0996875H8.768749999999999Z" fill="#000000" stroke-width="1"></path><path d="M7.6690625 18.076562499999998h1.0996875v1.0925h-1.0996875Z" fill="#000000" stroke-width="1"></path><path d="M7.6690625 13.692187500000001h1.0996875v1.0925h-1.0996875Z" fill="#000000" stroke-width="1"></path><path d="M7.6690625 9.315000000000001h1.0996875v1.0925h-1.0996875Z" fill="#000000" stroke-width="1"></path><path d="M7.6690625 4.930625h1.0996875v1.0925h-1.0996875Z" fill="#000000" stroke-width="1"></path><path d="M6.5765625000000005 19.169062500000003h1.0925v1.0925H6.5765625000000005Z" fill="#000000" stroke-width="1"></path><path d="M6.5765625000000005 14.7846875h1.0925v1.0996875H6.5765625000000005Z" fill="#000000" stroke-width="1"></path><path d="M6.5765625000000005 10.4075h1.0925V11.5H6.5765625000000005Z" fill="#000000" stroke-width="1"></path><path d="M6.5765625000000005 3.838125h1.0925v1.0925H6.5765625000000005Z" fill="#000000" stroke-width="1"></path><path d="M5.476875 20.2615625h1.0996875v1.0996875H5.476875Z" fill="#000000" stroke-width="1"></path><path d="M5.476875 15.884375h1.0996875v1.0925H5.476875Z" fill="#000000" stroke-width="1"></path><path d="M5.476875 11.5h1.0996875v1.0996875H5.476875Z" fill="#000000" stroke-width="1"></path><path d="M5.476875 9.315000000000001h1.0996875v1.0925H5.476875Z" fill="#000000" stroke-width="1"></path><path d="M5.476875 2.7384375h1.0996875v1.0996875H5.476875Z" fill="#000000" stroke-width="1"></path><path d="M4.3843749999999995 19.169062500000003h1.0925v1.0925H4.3843749999999995Z" fill="#000000" stroke-width="1"></path><path d="M4.3843749999999995 16.976875h1.0925v1.0996875H4.3843749999999995Z" fill="#000000" stroke-width="1"></path><path d="M4.3843749999999995 12.599687500000002h1.0925v1.0925H4.3843749999999995Z" fill="#000000" stroke-width="1"></path><path d="M4.3843749999999995 8.2153125h1.0925v1.0996875H4.3843749999999995Z" fill="#000000" stroke-width="1"></path><path d="M4.3843749999999995 1.6459375h1.0925v1.0925H4.3843749999999995Z" fill="#000000" stroke-width="1"></path><path d="m3.291875 20.2615625 -1.0996875 0 0 -1.0925 -1.0925 0 0 -2.1921874999999997 -1.0996875 0 0 5.476875 5.476875 0 0 -1.0925 -2.185 0 0 -1.0996875z" fill="#000000" stroke-width="1"></path><path d="M3.291875 18.076562499999998H4.3843749999999995v1.0925H3.291875Z" fill="#000000" stroke-width="1"></path><path d="M3.291875 13.692187500000001H4.3843749999999995v1.0925H3.291875Z" fill="#000000" stroke-width="1"></path><path d="M3.291875 7.1228125H4.3843749999999995v1.0925H3.291875Z" fill="#000000" stroke-width="1"></path><path d="M2.1921874999999997 0.54625H4.3843749999999995v1.0996875H2.1921874999999997Z" fill="#000000" stroke-width="1"></path><path d="M2.1921874999999997 16.976875h1.0996875v1.0996875H2.1921874999999997Z" fill="#000000" stroke-width="1"></path><path d="M2.1921874999999997 14.7846875h1.0996875v1.0996875H2.1921874999999997Z" fill="#000000" stroke-width="1"></path><path d="M2.1921874999999997 6.023125h1.0996875v1.0996875H2.1921874999999997Z" fill="#000000" stroke-width="1"></path><path d="M1.0996875 15.884375h1.0925v1.0925H1.0996875Z" fill="#000000" stroke-width="1"></path><path d="M1.0996875 4.930625h1.0925v1.0925H1.0996875Z" fill="#000000" stroke-width="1"></path><path d="M1.0996875 1.6459375h1.0925v1.0925H1.0996875Z" fill="#000000" stroke-width="1"></path><path d="M0 2.7384375h1.0996875v2.1921874999999997H0Z" fill="#000000" stroke-width="1"></path></g></svg>